<svg width="92" height="44" viewBox="0 0 92 44" fill="none" xmlns="http://www.w3.org/2000/svg">
<path d="M19.4092 12.873C19.5394 13.9473 19.6045 14.5658 19.6045 14.7285L19.5068 16.9014C19.4743 17.8291 19.4336 18.4232 19.3848 18.6836C19.2383 18.7487 19.1162 18.7812 19.0186 18.7812L18.7988 18.7324C18.278 16.4538 17.391 14.7936 16.1377 13.752C14.9007 12.7103 13.387 12.1895 11.5967 12.1895C9.74121 12.1895 8.2194 12.7103 7.03125 13.752C5.8431 14.7936 5.24902 16.0062 5.24902 17.3896C5.24902 18.4476 5.66406 19.416 6.49414 20.2949C7.32422 21.1738 9.44824 22.4922 12.8662 24.25C15.4704 25.6009 17.334 26.7077 18.457 27.5703C19.5801 28.4167 20.4264 29.4014 20.9961 30.5244C21.5658 31.6475 21.8506 32.9007 21.8506 34.2842C21.8506 36.0257 21.3949 37.6615 20.4834 39.1914C19.5882 40.7214 18.3757 41.877 16.8457 42.6582C15.3158 43.4232 13.2894 43.8057 10.7666 43.8057C8.56934 43.8057 6.46159 43.4557 4.44336 42.7559C3.25521 42.3327 2.53092 41.9909 2.27051 41.7305C2.01009 41.4701 1.87988 41.1934 1.87988 40.9004C1.87988 40.7214 1.89616 40.4935 1.92871 40.2168C2.15658 38.2962 2.27865 36.7174 2.29492 35.4805C2.32747 34.7155 2.38444 34.2679 2.46582 34.1377C2.53092 34.0238 2.65299 33.9668 2.83203 33.9668C2.97852 33.9668 3.09245 34.0238 3.17383 34.1377C3.27148 34.2354 3.33659 34.4307 3.36914 34.7236C3.54818 36.7256 4.47591 38.516 6.15234 40.0947C7.8125 41.6735 9.69238 42.4629 11.792 42.4629C13.0778 42.4629 14.2578 42.1943 15.332 41.6572C16.4225 41.1201 17.2689 40.347 17.8711 39.3379C18.4896 38.3125 18.7988 37.3197 18.7988 36.3594C18.7988 35.041 18.335 33.8366 17.4072 32.7461C16.4795 31.6556 14.6159 30.3861 11.8164 28.9375C9.01693 27.4727 7.19401 26.4066 6.34766 25.7393C4.98047 24.6488 3.95508 23.4932 3.27148 22.2725C2.76693 21.3285 2.51465 20.2298 2.51465 18.9766C2.51465 16.7142 3.40983 14.8018 5.2002 13.2393C6.99056 11.6605 9.39128 10.8711 12.4023 10.8711C14.0625 10.8711 15.4948 11.0583 16.6992 11.4326C17.5781 11.7256 18.4814 12.2057 19.4092 12.873ZM25.7568 33.1855C25.7568 32.0788 25.9847 30.8988 26.4404 29.6455C26.9124 28.376 27.6204 27.2448 28.5645 26.252C29.5085 25.2428 30.5094 24.4941 31.5674 24.0059C33.0485 23.3223 34.8551 22.9805 36.9873 22.9805C40.0309 22.9805 42.57 24.0221 44.6045 26.1055C46.6553 28.1888 47.6807 30.6953 47.6807 33.625C47.6807 36.2292 46.6064 38.5566 44.458 40.6074C42.3258 42.6419 39.624 43.6592 36.3525 43.6592C34.3343 43.6592 32.43 43.1302 30.6396 42.0723C29.305 41.2747 28.1576 40.0947 27.1973 38.5322C26.237 36.9697 25.7568 35.1875 25.7568 33.1855ZM36.5479 42.707C37.7848 42.707 38.973 42.3734 40.1123 41.7061C41.2679 41.0387 42.1875 39.9727 42.8711 38.5078C43.5547 37.0267 43.8965 35.3177 43.8965 33.3809C43.8965 32.1113 43.6279 30.6383 43.0908 28.9619C42.57 27.2855 41.7562 26.0322 40.6494 25.2021C39.5589 24.3558 38.2731 23.9326 36.792 23.9326C35.7178 23.9326 34.6191 24.1849 33.4961 24.6895C32.3893 25.194 31.4453 26.1624 30.6641 27.5947C29.8991 29.027 29.5166 31.0615 29.5166 33.6982C29.5166 36.6605 30.1839 38.9066 31.5186 40.4365C32.8695 41.9502 34.5459 42.707 36.5479 42.707ZM50.7812 12.751V12.2139C51.237 12.0674 51.7415 11.9128 52.2949 11.75C53.1087 11.4896 54.3132 11.0908 55.9082 10.5537H57.0557C57.0719 11.335 57.0801 11.7826 57.0801 11.8965C57.0801 25.2591 57.0394 33.2262 56.958 35.7979C56.9092 37.3115 56.8848 38.1172 56.8848 38.2148C56.8848 40.0378 56.958 41.055 57.1045 41.2666C57.2998 41.5596 57.8939 41.763 58.8867 41.877C59.8958 41.9909 60.4899 42.1048 60.6689 42.2188C60.7992 42.2839 60.8643 42.3978 60.8643 42.5605C60.8643 42.7396 60.8236 42.8698 60.7422 42.9512C60.6771 43.0163 60.5469 43.0488 60.3516 43.0488C60.2376 43.0488 59.3831 43.0244 57.7881 42.9756L54.5898 42.8779L50.4883 43.0488C50.2279 43.0651 50.0326 43.0163 49.9023 42.9023C49.8047 42.821 49.7559 42.707 49.7559 42.5605C49.7559 42.3978 49.8047 42.2839 49.9023 42.2188C50.0163 42.1374 50.6022 42.0072 51.6602 41.8281C52.7344 41.6491 53.3447 41.5026 53.4912 41.3887C53.654 41.2585 53.7598 40.9818 53.8086 40.5586C53.8737 39.9727 53.9062 38.3206 53.9062 35.6025L53.8818 29.9873L53.9551 24.1768L53.9307 18.3662L54.0039 15.5098C54.0039 14.9401 53.9144 14.5332 53.7354 14.2891C53.5563 14.0286 53.1738 13.7764 52.5879 13.5322C51.709 13.1742 51.1068 12.9137 50.7812 12.751ZM80.3223 30.1094L70.5322 30.1826H68.6768C67.9281 30.1826 67.1631 30.2152 66.3818 30.2803C66.2354 30.7686 66.1621 31.1022 66.1621 31.2812L66.1865 31.5254V31.7695L66.1621 32.9658C66.1621 33.9587 66.4714 35.1794 67.0898 36.6279C67.7246 38.0602 68.6198 39.1589 69.7754 39.9238C70.9473 40.6725 72.404 41.0713 74.1455 41.1201C75.0732 41.0713 75.8138 40.9574 76.3672 40.7783C76.9206 40.5993 77.7018 40.1842 78.7109 39.5332L80.4688 38.0928L80.6152 39.0693C80.6152 39.1833 80.6071 39.3053 80.5908 39.4355C79.8584 40.3633 78.9307 41.1771 77.8076 41.877C76.6846 42.5768 75.5452 43.0895 74.3896 43.415C73.8363 43.5615 72.9248 43.6348 71.6553 43.6348C70.4997 43.6348 69.3604 43.3988 68.2373 42.9268C66.5771 42.2106 65.2669 41.0632 64.3066 39.4844C63.3626 37.8893 62.8906 35.9606 62.8906 33.6982C62.8906 32.9821 63.0208 32.0625 63.2812 30.9395C63.5579 29.8164 64.0462 28.6201 64.7461 27.3506C65.2181 26.488 65.7959 25.7799 66.4795 25.2266C67.4561 24.4453 68.3105 23.9001 69.043 23.5908C70.1009 23.1514 71.3298 22.9316 72.7295 22.9316C74.2432 22.9316 75.4801 23.2083 76.4404 23.7617C77.7425 24.4941 78.7109 25.4382 79.3457 26.5938C79.9967 27.7493 80.3223 28.8073 80.3223 29.7676V30.1094ZM66.6992 29.2305H67.8467C68.6768 29.2305 71.1507 29.1003 75.2686 28.8398C75.9196 28.8073 76.3184 28.7422 76.4648 28.6445C76.7578 28.3353 76.9043 28.0586 76.9043 27.8145C76.9043 27.3099 76.7415 26.7402 76.416 26.1055C76.0905 25.4544 75.5859 24.958 74.9023 24.6162C74.235 24.2581 73.4538 24.0791 72.5586 24.0791C70.6706 24.0791 69.1569 24.7871 68.0176 26.2031C67.1387 27.2773 66.6992 28.2865 66.6992 29.2305ZM83.7891 41.0225C83.7891 40.3063 84.0495 39.6797 84.5703 39.1426C85.1074 38.6055 85.7259 38.3369 86.4258 38.3369C87.1094 38.3369 87.6872 38.5892 88.1592 39.0938C88.6312 39.5983 88.8672 40.2331 88.8672 40.998C88.8672 41.763 88.6149 42.4059 88.1104 42.9268C87.6221 43.4476 87.028 43.708 86.3281 43.708C85.6445 43.708 85.0505 43.4476 84.5459 42.9268C84.0413 42.3896 83.7891 41.7549 83.7891 41.0225Z" fill="white"/>
</svg>

